<?xml version="1.0" standalone="no"?>
<!DOCTYPE svg PUBLIC "-//W3C//DTD SVG 20010904//EN"
 "http://www.w3.org/TR/2001/REC-SVG-20010904/DTD/svg10.dtd">
<svg version="1.0" xmlns="http://www.w3.org/2000/svg"
 width="199.000000pt" height="199.000000pt" viewBox="0 0 199.000000 199.000000"
 preserveAspectRatio="xMidYMid meet">
<metadata>
Created by potrace 1.14, written by Peter Selinger 2001-2017
</metadata>
<g transform="translate(0.000000,199.000000) scale(0.100000,-0.100000)"
fill="#000000" stroke="none">
<path d="M990 1592 c-8 -2 -80 -31 -160 -64 l-146 -59 2 -57 c1 -31 2 -58 3
-59 0 -1 72 27 158 62 l156 64 156 -63 c86 -35 158 -63 160 -61 10 10 -21 28
-158 90 l-150 68 -3 42 c-2 32 -7 41 -18 37z"/>
<path d="M838 1331 c-75 -26 -140 -50 -144 -54 -10 -9 -13 -92 -5 -105 4 -6
65 10 151 39 79 27 153 49 163 49 11 0 67 -16 126 -36 167 -58 193 -65 189
-53 -4 13 -295 129 -303 121 -3 -3 -5 16 -5 41 0 38 -3 47 -17 46 -10 0 -80
-22 -155 -48z"/>
<path d="M1509 1327 l-147 -51 -1 -58 c0 -32 1 -58 2 -58 1 0 70 22 152 50 83
27 158 50 168 50 10 0 83 -22 162 -49 189 -64 191 -44 2 28 -78 30 -146 58
-152 63 -5 5 -8 24 -6 43 3 46 1 45 -180 -18z"/>
<path d="M148 1127 l-148 -40 0 -60 c0 -57 1 -59 23 -53 12 3 83 22 158 42
l136 35 119 -31 c65 -17 130 -33 144 -36 14 -3 33 -7 43 -10 9 -3 17 -1 17 4
0 6 -72 33 -159 61 -155 50 -160 52 -159 79 1 44 -1 52 -14 51 -7 -1 -79 -20
-160 -42z"/>
<path d="M843 1130 c-78 -21 -146 -40 -151 -44 -9 -6 -10 -101 -1 -111 3 -3
27 1 52 9 26 8 47 12 47 10 0 -2 12 1 28 7 15 6 34 12 42 14 8 2 44 11 79 20
52 13 73 14 110 5 25 -6 48 -10 51 -10 3 0 32 -9 65 -20 33 -11 61 -20 63 -20
1 1 19 -4 40 -10 46 -12 52 -12 52 0 0 5 -69 31 -152 58 l-153 49 -3 41 c-2
25 -8 42 -15 41 -7 0 -76 -18 -154 -39z"/>
<path d="M1514 1128 l-151 -40 -2 -53 c-1 -30 2 -56 7 -59 5 -3 76 13 158 35
142 38 163 40 229 23 33 -8 197 -53 215 -59 16 -5 21 -3 18 6 -2 7 -69 33
-149 59 l-144 47 -3 41 c-2 25 -8 42 -15 41 -7 0 -80 -19 -163 -41z"/>
<path d="M299 946 c-2 -2 -31 -8 -64 -11 -33 -4 -63 -9 -67 -11 -3 -2 -29 -7
-56 -10 -103 -11 -107 -13 -110 -78 l-3 -57 38 5 c21 2 93 14 160 25 68 12
133 19 145 17 13 -3 37 -7 53 -10 17 -2 46 -7 65 -10 80 -14 97 -17 138 -23
67 -9 50 13 -20 27 -75 14 -54 10 -163 35 l-90 21 0 39 c-1 34 -13 54 -26 41z"/>
<path d="M945 940 c-69 -14 -125 -24 -205 -35 -25 -4 -47 -9 -50 -11 -2 -3 -5
-30 -5 -60 l-1 -56 41 7 c23 3 53 8 66 10 226 39 196 38 358 10 168 -28 171
-29 171 -15 0 5 -17 12 -37 16 -21 4 -92 19 -157 34 l-120 27 0 38 c-1 43 -5
46 -61 35z"/>
<path d="M1630 940 c-19 -5 -55 -11 -80 -15 -25 -3 -52 -8 -60 -10 -8 -2 -37
-6 -64 -10 -27 -3 -53 -8 -58 -11 -4 -3 -7 -30 -7 -60 l2 -55 41 5 c22 3 51 8
62 10 12 2 39 7 60 11 79 12 100 15 125 21 14 3 94 -7 176 -21 173 -29 163
-28 163 -16 0 11 1 11 -167 47 l-132 29 -3 39 c-3 44 -8 47 -58 36z"/>
<path d="M217 724 c-2 -2 -157 -14 -204 -17 -9 0 -13 -19 -13 -60 l0 -59 108
9 c131 10 304 10 437 -1 172 -14 73 20 -115 39 -86 9 -112 18 -109 38 6 52 1
58 -51 56 -28 -2 -51 -4 -53 -5z"/>
<path d="M907 724 c-1 -1 -49 -5 -107 -9 -58 -4 -107 -9 -110 -12 -3 -3 -5
-29 -6 -60 l-1 -55 96 8 c121 11 315 11 451 1 71 -5 100 -5 90 2 -8 6 -40 13
-70 17 -30 4 -62 8 -71 9 -9 2 -38 6 -65 10 -27 3 -58 8 -69 10 -11 2 -23 4
-27 4 -5 1 -8 19 -8 41 l0 41 -50 -2 c-28 -2 -51 -4 -53 -5z"/>
<path d="M1588 724 c-2 -1 -43 -5 -93 -9 -49 -3 -99 -7 -110 -8 -17 -2 -20
-10 -22 -60 l-2 -59 102 7 c56 4 111 9 122 11 25 5 161 5 195 0 78 -11 210
-17 210 -9 0 6 -39 15 -87 22 -49 7 -116 17 -150 23 l-63 10 0 39 0 39 -50 -1
c-27 -1 -51 -3 -52 -5z"/>
<path d="M0 458 l0 -58 320 0 c176 0 320 4 320 8 0 4 -8 8 -17 8 -10 1 -74 4
-143 9 -69 4 -132 7 -141 7 -13 0 -16 7 -15 29 4 51 -1 52 -168 53 l-156 1 0
-57z"/>
<path d="M691 510 c-3 -3 -6 -29 -7 -57 l0 -53 318 0 c175 0 318 4 318 8 0 5
-6 9 -12 9 -63 1 -284 16 -290 19 -5 3 -8 21 -8 40 0 19 -3 34 -7 35 -38 3
-306 3 -312 -1z"/>
<path d="M1364 498 c-2 -9 -4 -35 -2 -57 l2 -41 313 0 c172 0 313 4 313 8 0 5
-6 9 -12 9 -70 2 -275 16 -280 20 -5 2 -8 20 -8 39 0 20 -5 34 -12 35 -7 0
-79 1 -161 2 -130 2 -148 0 -153 -15z"/>
</g>
</svg>
